<?xml version="1.0" encoding="utf-8"?>
<!-- Generator: Adobe Illustrator 23.0.6, SVG Export Plug-In . SVG Version: 6.00 Build 0)  -->
<svg version="1.1" id="Layer_1" xmlns="http://www.w3.org/2000/svg" xmlns:xlink="http://www.w3.org/1999/xlink" x="0px" y="0px"
	 viewBox="0 0 636 458" style="enable-background:new 0 0 636 458;" xml:space="preserve">
<style type="text/css">
	.st0{fill:none;stroke:#CCCCCC;}
	.st1{fill:#CCCCCC;stroke:#808080;}
	.st2{fill:#EC012A;stroke:#808080;}
	.st3{fill:#A98B19;stroke:#808080;}
	.st4{fill:#235BA4;stroke:#808080;}
	.st5{font-family:'HelveticaNeue';}
	.st6{font-size:8.5861px;}
</style>
<g id="edges">
	<path class="st0" d="M414.2,430.3c12-59.7,119.6-131.4,179.3-119.4"/>
	<path class="st0" d="M414.2,430.3c-77.7-63.5-99-275.1-35.5-352.8"/>
	<path class="st0" d="M414.2,430.3c-29.7-84.5,52.5-255.8,137-285.5"/>
	<path class="st0" d="M593.6,310.9c-14-9.5-20.9-44.7-11.4-58.7"/>
	<path class="st0" d="M593.6,310.9c-76.9,37.8-248.8-20.9-286.5-97.8"/>
	<path class="st0" d="M593.6,310.9c1.9,26.9-35.7,70-62.5,71.9"/>
	<path class="st0" d="M378.7,77.6c75.6-5.7,197.7,99.1,203.4,174.7"/>
	<path class="st0" d="M378.7,77.6c-34.3,104.5-242.5,209.8-347,175.5"/>
	<path class="st0" d="M378.7,77.6C402.2,59,465.3,66.2,484,89.7"/>
	<path class="st0" d="M551.3,144.9c27.6,15.3,46.1,79.7,30.8,107.4"/>
	<path class="st0" d="M551.3,144.9c-35.2,62.5-181.7,103.5-244.3,68.3"/>
	<path class="st0" d="M551.3,144.9c43.5,51.6,31.4,194.4-20.3,238"/>
	<path class="st0" d="M144.7,328.8c74.2-33.6,235.9,27.3,269.5,101.5"/>
	<path class="st0" d="M144.7,328.8C75,273.7,53,86.4,108.1,16.6"/>
	<path class="st0" d="M144.7,328.8c51-67.1,228.2-91.3,295.4-40.3"/>
	<path class="st0" d="M249.7,53.9c108.2,42.4,206.9,268.3,164.5,376.4"/>
	<path class="st0" d="M249.7,53.9c71.9,45.3,111.9,221.1,66.6,293"/>
	<path class="st0" d="M249.7,53.9c77.6-3.7,199.5,107.2,203.2,184.7"/>
	<path class="st0" d="M249.7,53.9c-13.2,51.4-110.1,108.8-161.6,95.7"/>
</g>
<g id="nodes">
	<circle class="st1" cx="593.6" cy="310.9" r="5.2"/>
	<g>
		<circle class="st2" cx="378.7" cy="77.6" r="5.2"/>
		<circle class="st2" cx="551.3" cy="144.9" r="5.2"/>
		<circle class="st2" cx="144.7" cy="328.8" r="5.2"/>
	</g>
	<circle class="st3" cx="414.2" cy="430.3" r="5.2"/>
	<circle class="st1" cx="582.1" cy="252.2" r="5.2"/>
	<circle class="st1" cx="307" cy="213.2" r="5.2"/>
	<circle class="st1" cx="531" cy="382.9" r="5.2"/>
	<circle class="st1" cx="31.7" cy="253.1" r="5.2"/>
	<circle class="st1" cx="484" cy="89.6" r="5.2"/>
	<circle class="st1" cx="108.1" cy="16.6" r="5.2"/>
	<circle class="st1" cx="440.1" cy="288.6" r="5.2"/>
	<circle class="st1" cx="316.3" cy="346.9" r="5.2"/>
	<circle class="st1" cx="452.9" cy="238.6" r="5.2"/>
	<circle class="st1" cx="88.2" cy="149.6" r="5.2"/>
	<circle class="st4" cx="249.7" cy="53.9" r="5.2"/>
</g>
<g id="node-labels">
	<text transform="matrix(1 0 0 1 566.5127 324.5469)" class="st5 st6">Claude Monet</text>
	<text transform="matrix(1 0 0 1 369.1733 91.1118)" class="st5 st6">1840</text>
	<text transform="matrix(1 0 0 1 541.7251 158.4307)" class="st5 st6">1926</text>
	<text transform="matrix(1 0 0 1 135.1973 342.395)" class="st5 st6">1919</text>
	<text transform="matrix(1 0 0 1 392.1387 443.8999)" class="st5 st6">Water Lilies</text>
	<text transform="matrix(1 0 0 1 534.4883 266.6489)" class="st5 st6">The Manneporte (Étretat)</text>
	<text transform="matrix(1 0 0 1 160.0684 227.2681)" class="st5 st6">The Stroller (Suzanne Hoschedé, later Mrs. Theodore Earl Butler, 1868–1899)</text>
	<text transform="matrix(1 0 0 1 475.9492 396.8423)" class="st5 st6">Poppy Fields near Argenteuil</text>
	<text transform="matrix(1 0 0 1 2.2715 267.0151)" class="st5 st6">The Reprimand</text>
	<text transform="matrix(1 0 0 1 428.7314 103.6074)" class="st5 st6">The Missionary&apos;s Adventures</text>
	<text transform="matrix(1 0 0 1 95.312 30.126)" class="st5 st6">Alsace</text>
	<text transform="matrix(1 0 0 1 413.2559 302.5356)" class="st5 st6">Marie Depage</text>
	<text transform="matrix(1 0 0 1 277.3491 360.8804)" class="st5 st6">A Footman Sleeping</text>
	<text transform="matrix(1 0 0 1 438.1846 252.1909)" class="st5 st6">A Bashi</text>
	<text transform="matrix(1 0 0 1 2.8335 163.6562)" class="st5 st6">The Artist&apos;s Wife (Périe, 1849–1887) Reading</text>
	<text transform="matrix(1 0 0 1 236.5137 67.4502)" class="st5 st6">France</text>
</g>
</svg>
