<svg id="Layer_1" data-name="Layer 1" xmlns="http://www.w3.org/2000/svg" xmlns:xlink="http://www.w3.org/1999/xlink" viewBox="0 0 695.39 465.83"><defs><style>.cls-1,.cls-10,.cls-2,.cls-22,.cls-3,.cls-4,.cls-5,.cls-6,.cls-7,.cls-9{fill:none;}.cls-1{stroke:#fff;stroke-width:3px;}.cls-1,.cls-2,.cls-3,.cls-4,.cls-5{stroke-miterlimit:10;}.cls-2,.cls-3{stroke:#878787;}.cls-3{stroke-dasharray:4.13 2.06;}.cls-4,.cls-5{stroke:#969696;}.cls-5{stroke-dasharray:3.93 1.96;}.cls-6,.cls-7{stroke:#646464;}.cls-7{stroke-dasharray:9.98 3.99;}.cls-18,.cls-8{fill:#646464;}.cls-9{stroke:#d8d8d8;}.cls-10{stroke:#000;}.cls-11{fill:#ccc;}.cls-11,.cls-12,.cls-14{stroke:gray;}.cls-12{fill:#ec012a;}.cls-13{fill:#f0f0f0;stroke:#dcdcdc;}.cls-14{fill:#235ba4;}.cls-15,.cls-16,.cls-18{isolation:isolate;font-size:8.59px;font-family:HelveticaNeue, Helvetica Neue;}.cls-16{letter-spacing:-0.04em;}.cls-17{letter-spacing:0em;}.cls-19{letter-spacing:-0.03em;}.cls-20{letter-spacing:-0.02em;}.cls-21{letter-spacing:0em;}.cls-23{clip-path:url(#clip-path);}.cls-24{clip-path:url(#clip-path-2);}</style><clipPath id="clip-path" transform="translate(-2.19 -15.9)"><rect class="cls-1" x="5.48" y="162.63" width="142.96" height="68.76"/></clipPath><clipPath id="clip-path-2" transform="translate(-2.19 -15.9)"><rect class="cls-1" x="539.02" y="397.32" width="138.17" height="68.98"/></clipPath></defs><title>mini-path</title><path class="cls-2" d="M108.7,263.3a7.47,7.47,0,0,1-.3,2" transform="translate(-2.19 -15.9)"/><path class="cls-3" d="M107.6,267.2c-7.8,14.3-52.1,33.9-39-33" transform="translate(-2.19 -15.9)"/><path class="cls-2" d="M68.7,233.1c.1-.6.3-1.3.4-2" transform="translate(-2.19 -15.9)"/><path class="cls-4" d="M491.2,440.5a15.11,15.11,0,0,0-.9,1.8" transform="translate(-2.19 -15.9)"/><path class="cls-5" d="M489.5,444.1c-10.9,27.9,43.9,53.8,104,23.6" transform="translate(-2.19 -15.9)"/><path class="cls-4" d="M594.3,467.2l1.8-.9" transform="translate(-2.19 -15.9)"/><path class="cls-6" d="M188.3,433.3c.8-1.4,1.6-2.9,2.4-4.4" transform="translate(-2.19 -15.9)"/><path class="cls-7" d="M192.5,425.4c32.4-68.1-9.4-160.4-71.7-166.9" transform="translate(-2.19 -15.9)"/><path class="cls-6" d="M118.8,258.2c-1.7-.1-3.3-.2-5-.2" transform="translate(-2.19 -15.9)"/><path class="cls-8" d="M185.1,438.4a27.72,27.72,0,0,1,8.5-4.8l-5-1-3.2-3.9A26.46,26.46,0,0,1,185.1,438.4Z" transform="translate(-2.19 -15.9)"/><g id="edges"><path class="cls-9" d="M491.2,435.3c-29.7-84.5,52.5-255.8,137-285.5" transform="translate(-2.19 -15.9)"/><path class="cls-9" d="M670.6,315.9c-14-9.5-20.9-44.7-11.4-58.7" transform="translate(-2.19 -15.9)"/><path class="cls-9" d="M670.6,315.9c-76.9,37.8-248.8-20.9-286.5-97.8" transform="translate(-2.19 -15.9)"/><path class="cls-9" d="M670.6,315.9c1.9,26.9-35.7,70-62.5,71.9" transform="translate(-2.19 -15.9)"/><path class="cls-9" d="M455.7,82.6c75.6-5.7,197.7,99.1,203.4,174.7" transform="translate(-2.19 -15.9)"/><path class="cls-9" d="M455.7,82.6C479.2,64,542.3,71.2,561,94.7" transform="translate(-2.19 -15.9)"/><path class="cls-9" d="M628.3,149.9c27.6,15.3,46.1,79.7,30.8,107.4" transform="translate(-2.19 -15.9)"/><path class="cls-9" d="M628.3,149.9C593.1,212.4,446.6,253.4,384,218.2" transform="translate(-2.19 -15.9)"/><path class="cls-9" d="M628.3,149.9c43.5,51.6,31.4,194.4-20.3,238" transform="translate(-2.19 -15.9)"/><path class="cls-9" d="M221.7,333.8c74.2-33.6,235.9,27.3,269.5,101.5" transform="translate(-2.19 -15.9)"/><path class="cls-9" d="M221.7,333.8C152,278.7,130,91.4,185.1,21.6" transform="translate(-2.19 -15.9)"/><path class="cls-9" d="M221.7,333.8c51-67.1,228.2-91.3,295.4-40.3" transform="translate(-2.19 -15.9)"/><path class="cls-9" d="M326.7,58.9c108.2,42.4,206.9,268.3,164.5,376.4" transform="translate(-2.19 -15.9)"/><path class="cls-9" d="M326.7,58.9c71.9,45.3,111.9,221.1,66.6,293" transform="translate(-2.19 -15.9)"/><path class="cls-9" d="M326.7,58.9c77.6-3.7,199.5,107.2,203.2,184.7" transform="translate(-2.19 -15.9)"/><path class="cls-9" d="M326.7,58.9c-13.2,51.4-110.1,108.8-161.6,95.7" transform="translate(-2.19 -15.9)"/><path class="cls-10" d="M491.2,435.3c12-59.7,119.6-131.4,179.3-119.4" transform="translate(-2.19 -15.9)"/><path class="cls-10" d="M491.2,435.3c-77.7-63.5-99-275.1-35.5-352.8" transform="translate(-2.19 -15.9)"/><path class="cls-10" d="M455.7,82.6c-34.3,104.5-242.5,209.8-347,175.5" transform="translate(-2.19 -15.9)"/></g><g id="nodes"><circle class="cls-11" cx="668.41" cy="300" r="5.2"/><circle class="cls-12" cx="453.51" cy="66.7" r="5.2"/><circle class="cls-13" cx="626.11" cy="134" r="5.2"/><circle class="cls-13" cx="219.51" cy="317.9" r="5.2"/><circle class="cls-14" cx="489.01" cy="419.4" r="5.2"/><circle class="cls-13" cx="656.91" cy="241.3" r="5.2"/><circle class="cls-13" cx="381.81" cy="202.3" r="5.2"/><circle class="cls-13" cx="605.81" cy="372" r="5.2"/><circle class="cls-11" cx="106.51" cy="242.2" r="5.2"/><circle class="cls-13" cx="558.81" cy="78.7" r="5.2"/><circle class="cls-13" cx="182.91" cy="5.7" r="5.2"/><circle class="cls-13" cx="514.91" cy="277.7" r="5.2"/><circle class="cls-13" cx="391.11" cy="336" r="5.2"/><circle class="cls-13" cx="527.71" cy="227.7" r="5.2"/><circle class="cls-13" cx="163.01" cy="138.7" r="5.2"/><circle class="cls-13" cx="324.51" cy="43" r="5.2"/></g><g id="node-labels"><text class="cls-15" transform="translate(641.32 292.65)">Claude Monet</text><text class="cls-15" transform="translate(443.98 58.71)">1840</text><text class="cls-16" transform="translate(466.94 431.5)">W<tspan class="cls-17" x="7.63" y="0">ater Lilies</tspan></text><text class="cls-15" transform="translate(77.08 233.62)">The Reprimand</text></g><text class="cls-18" transform="translate(143.38 434.02)">Jean-Geo<tspan class="cls-19" x="37.85" y="0">r</tspan><tspan x="40.47" y="0">ges </tspan><tspan class="cls-20" x="56.68" y="0">V</tspan><tspan class="cls-21" x="61.78" y="0">ibert </tspan></text><rect class="cls-22" x="10.21" y="151.11" width="124.4" height="61.7"/><g class="cls-23"><image width="1200" height="767" transform="translate(0 128.41) scale(0.13)" xlink:href="the-reprimand.jpg"/></g><rect class="cls-1" x="3.29" y="146.73" width="142.96" height="68.76"/><g class="cls-24"><image width="600" height="306" transform="translate(533.27 378.52) scale(0.24)" xlink:href="water-lilies.jpg"/></g><rect class="cls-1" x="536.82" y="381.42" width="138.17" height="68.98"/></svg>