<?xml version="1.0" encoding="utf-8"?>
<!-- Generator: Adobe Illustrator 23.0.6, SVG Export Plug-In . SVG Version: 6.00 Build 0)  -->
<svg version="1.1" id="Layer_1" xmlns="http://www.w3.org/2000/svg" xmlns:xlink="http://www.w3.org/1999/xlink" x="0px" y="0px"
	 viewBox="0 0 668 505" style="enable-background:new 0 0 668 505;" xml:space="preserve">
<style type="text/css">
	.st0{fill:none;stroke:#646464;}
	.st1{fill:none;stroke:#646464;stroke-dasharray:9.9838,3.9935;}
	.st2{fill:#646464;}
	.st3{fill:none;stroke:#d8d8d8;}
	.st4{fill:none;stroke:#000000;}
	.st5{fill:#CCCCCC;stroke:#808080;}
	.st6{fill:#F0F0F0;stroke:#DCDCDC;}
	.st7{font-family:'HelveticaNeue';}
	.st8{font-size:8.5861px;}
</style>
<g>
	<g>
		<path class="st0" d="M111.3,461.3c0.8-1.4,1.6-2.9,2.4-4.4"/>
		<path class="st1" d="M115.5,453.4c32.4-68.1-9.4-160.4-71.7-166.9"/>
		<path class="st0" d="M41.8,286.2c-1.7-0.1-3.3-0.2-5-0.2"/>
		<g>
			<path class="st2" d="M108.1,466.4c2.4-1.9,5.7-4,8.5-4.8l-5-1l-3.2-3.9C109,459.5,108.7,463.5,108.1,466.4z"/>
		</g>
	</g>
</g>
<g id="edges">
	<path class="st3" d="M414.2,463.3c-29.7-84.5,52.5-255.8,137-285.5"/>
	<path class="st3" d="M593.6,343.9c-14-9.5-20.9-44.7-11.4-58.7"/>
	<path class="st3" d="M593.6,343.9c-76.9,37.8-248.8-20.9-286.5-97.8"/>
	<path class="st3" d="M593.6,343.9c1.9,26.9-35.7,70-62.5,71.9"/>
	<path class="st3" d="M378.7,110.6c75.6-5.7,197.7,99.1,203.4,174.7"/>
	<path class="st3" d="M378.7,110.6c23.5-18.6,86.6-11.4,105.3,12.1"/>
	<path class="st3" d="M551.3,177.9c27.6,15.3,46.1,79.7,30.8,107.4"/>
	<path class="st3" d="M551.3,177.9c-35.2,62.5-181.7,103.5-244.3,68.3"/>
	<path class="st3" d="M551.3,177.9c43.5,51.6,31.4,194.4-20.3,238"/>
	<path class="st3" d="M144.7,361.8c74.2-33.6,235.9,27.3,269.5,101.5"/>
	<path class="st3" d="M144.7,361.8C75,306.7,53,119.4,108.1,49.6"/>
	<path class="st3" d="M144.7,361.8c51-67.1,228.2-91.3,295.4-40.3"/>
	<path class="st3" d="M249.7,86.9c108.2,42.4,206.9,268.3,164.5,376.4"/>
	<path class="st3" d="M249.7,86.9c71.9,45.3,111.9,221.1,66.6,293"/>
	<path class="st3" d="M249.7,86.9c77.6-3.7,199.5,107.2,203.2,184.7"/>
	<path class="st3" d="M249.7,86.9c-13.2,51.4-110.1,108.8-161.6,95.7"/>
	<path class="st4" d="M414.2,463.3c12-59.7,119.6-131.4,179.3-119.4"/>
	<path class="st4" d="M414.2,463.3c-77.7-63.5-99-275.1-35.5-352.8"/>
	<path class="st4" d="M378.7,110.6c-34.3,104.5-242.5,209.8-347,175.5"/>
</g>
<g id="nodes">
	<circle class="st5" cx="593.6" cy="343.9" r="5.2"/>
	<circle class="st5" cx="378.7" cy="110.6" r="5.2"/>
	<circle class="st6" cx="551.3" cy="177.9" r="5.2"/>
	<circle class="st6" cx="144.7" cy="361.8" r="5.2"/>
	<circle class="st5" cx="414.2" cy="463.3" r="5.2"/>
	<circle class="st6" cx="582.1" cy="285.2" r="5.2"/>
	<circle class="st6" cx="307" cy="246.2" r="5.2"/>
	<circle class="st6" cx="531" cy="415.9" r="5.2"/>
	<circle class="st5" cx="31.7" cy="286.1" r="5.2"/>
	<circle class="st6" cx="484" cy="122.6" r="5.2"/>
	<circle class="st6" cx="108.1" cy="49.6" r="5.2"/>
	<circle class="st6" cx="440.1" cy="321.6" r="5.2"/>
	<circle class="st6" cx="316.3" cy="379.9" r="5.2"/>
	<circle class="st6" cx="452.9" cy="271.6" r="5.2"/>
	<circle class="st6" cx="88.2" cy="182.6" r="5.2"/>
	<circle class="st6" cx="249.7" cy="86.9" r="5.2"/>
</g>
<g id="node-labels">
	<text transform="matrix(1 0 0 1 566.5127 336.5469)" class="st7 st8">Claude Monet</text>
	<text transform="matrix(1 0 0 1 369.1733 102.6118)" class="st7 st8">1840</text>
	<text transform="matrix(1 0 0 1 392.1387 475.3999)" class="st7 st8">Water Lilies</text>
	<text transform="matrix(1 0 0 1 2.2715 277.5151)" class="st7 st8">The Reprimand</text>
</g>
<text transform="matrix(1 0 0 1 68.5736 477.9244)" class="st2 st7 st8">Jean-Georges Vibert </text>
</svg>
